<svg width="234" height="28" viewBox="0 0 234 28" fill="none" xmlns="http://www.w3.org/2000/svg">
<path d="M5.77639 0.568357C5.21978 0.684319 4.77914 0.869852 4.77914 1.009C4.77914 1.12496 4.63998 1.21773 4.47764 1.21773C4.10657 1.21773 2.2976 2.91074 1.4627 4.02395C0.53502 5.25312 0.256717 6.94613 0.581404 9.28851C0.766939 10.6336 0.998858 11.399 1.32354 11.7237C1.57866 12.002 1.83377 12.4658 1.90334 12.7441C1.99611 13.0456 2.13526 13.2775 2.25122 13.2775C2.36718 13.2775 2.45995 13.4862 2.45995 13.7414C2.45995 13.9965 2.36718 14.2052 2.25122 14.2052C2.13526 14.2052 1.97292 14.5067 1.88015 14.9009C1.78738 15.272 1.64823 15.5967 1.57866 15.5967C1.30035 15.5967 0.813323 16.9186 0.581404 18.3565C0.233526 20.5598 0.604596 22.3223 1.76419 23.853C4.29211 27.1926 8.65218 28.0739 12.2469 25.9171C13.0123 25.4764 13.708 25.1054 13.824 25.1054C13.9399 25.1054 14.6589 25.4764 15.4242 25.9403C17.6042 27.239 21.0366 27.4478 23.0543 26.3809C24.1212 25.8243 25.9301 23.9458 26.5795 22.763C27.0202 21.9049 27.1129 21.3947 27.1129 19.5857C27.1129 17.6144 27.0433 17.3129 26.3244 15.875C25.8838 15.0169 25.4663 14.2748 25.3735 14.2516C25.0952 14.1356 25.1416 13.2775 25.4199 13.2775C25.5591 13.2775 25.6518 13.1384 25.6518 12.976C25.6518 12.8369 25.9069 12.1875 26.2084 11.5845C27.3912 9.26532 27.5072 6.55186 26.5331 4.58055C25.9765 3.53692 23.7037 1.21773 23.2167 1.21773C23.0312 1.21773 22.8688 1.12496 22.8688 1.009C22.8688 0.893045 22.1267 0.661125 21.2454 0.498783C19.2973 0.150904 16.607 0.521975 15.8185 1.26411C15.5634 1.49603 15.0995 1.75114 14.8212 1.82072C14.5197 1.91349 14.2878 2.05264 14.2878 2.1686C14.2878 2.58605 13.5457 2.35413 12.3629 1.61199C10.4148 0.359631 8.18834 0.0117531 5.77639 0.568357ZM10.5075 1.82072C11.0641 2.02945 11.5048 2.30775 11.5048 2.40052C11.5048 2.51648 11.6439 2.60925 11.8063 2.60925C11.9918 2.60925 12.6644 3.11947 13.3369 3.76884C14.0095 4.39502 14.5893 4.92843 14.6357 4.92843C14.7285 4.92843 17.1172 7.38677 19.019 9.40447C19.993 10.4481 20.1785 11.3758 19.3436 10.9351C19.0421 10.7728 18.5319 10.3785 18.184 10.0538C16.3751 8.29126 12.618 4.76609 11.5512 3.79203C10.4148 2.77159 10.1828 2.65563 8.81452 2.51648C6.75045 2.30775 5.73 2.63244 4.38487 3.95437C2.52952 5.76334 2.04249 7.64188 2.85421 9.79873C3.06294 10.3785 3.29485 10.8887 3.38762 10.9583C3.66593 11.2366 4.15295 12.3498 4.0138 12.489C3.94423 12.5818 3.64273 12.5818 3.34124 12.5122C2.83102 12.373 1.99611 10.9351 1.99611 10.1698C1.99611 9.98426 1.90334 9.75235 1.76419 9.68277C1.4627 9.49723 1.4627 5.92568 1.76419 5.74015C1.90334 5.67057 1.99611 5.41546 1.99611 5.18354C1.99611 4.65013 3.54997 2.60925 3.96742 2.60925C4.12976 2.60925 4.3153 2.53967 4.36168 2.42371C4.77914 1.49603 8.62899 1.12496 10.5075 1.82072ZM22.3354 1.82072C22.892 2.02945 23.3326 2.30775 23.3326 2.40052C23.3326 2.51648 23.4486 2.60925 23.5878 2.60925C24.0516 2.60925 25.3967 4.32544 25.5591 5.11397C25.6286 5.53142 25.791 5.92568 25.9069 5.99526C26.1852 6.1576 26.1621 9.72915 25.8838 9.91469C25.7678 9.98426 25.6518 10.2394 25.6518 10.4713C25.6518 10.7032 25.3967 11.1902 25.072 11.5613C24.7474 11.9324 24.4922 12.3035 24.4922 12.373C24.4922 12.4658 23.8661 13.1847 23.1007 13.9965C22.3586 14.8082 21.8252 15.5039 21.9411 15.5503C22.0803 15.5967 22.1731 15.7822 22.1731 15.9678C22.1731 16.1533 22.3586 16.2925 22.5905 16.2925C23.2631 16.2925 24.2603 18.2406 24.2603 19.5857C24.2603 20.8149 22.6137 23.25 21.7788 23.25C21.6164 23.25 21.4773 23.3428 21.4773 23.4356C21.4773 23.6675 20.0858 24.1777 19.4132 24.1777C18.8334 24.1777 16.723 23.1804 16.0968 22.6238C15.5634 22.1368 15.5634 20.6525 16.0736 19.8176C16.5142 19.1451 17.1636 18.4029 20.3177 15.1329C24.4459 10.796 24.4459 10.8192 24.8169 9.3117C25.4895 6.7374 25.2112 5.85611 23.1703 3.86161C21.7788 2.51648 20.8743 2.21498 19.1117 2.49328C17.9753 2.65563 16.7925 3.07308 16.5838 3.35139C16.3983 3.62969 14.7516 3.8848 14.7516 3.62969C14.7748 3.32819 15.2851 2.7252 15.6793 2.51648C15.8649 2.42371 16.3983 2.14541 16.8389 1.91349C17.9057 1.33369 20.9207 1.28731 22.3354 1.82072ZM9.18559 3.53692C9.18559 3.65288 9.34794 3.76884 9.53347 3.76884C10.206 3.76884 11.1569 4.55736 14.7053 8.08253C16.6534 10.0306 18.0913 11.3526 17.8826 11.0511C17.4651 10.4017 17.4419 10.2626 17.8362 10.2626C18.2768 10.2626 19.6219 11.5613 19.6219 11.9788C19.6219 12.4194 19.1349 12.4658 18.7407 12.0715C18.5319 11.8628 18.4623 11.886 18.4623 12.1875C18.4623 12.3962 18.3464 12.5818 18.2072 12.5818C18.0217 12.5818 18.0217 12.6977 18.2304 12.9296C18.3928 13.1152 18.4392 13.4399 18.3696 13.6486C18.2304 13.9965 18.2768 13.9965 18.6247 13.7182C18.8566 13.5326 19.4596 12.9296 19.9698 12.373C20.48 11.8164 21.2686 10.9815 21.7324 10.4945C23.3558 8.82467 23.4254 7.13166 21.9411 5.64738C20.8279 4.55736 20.2249 4.37183 18.6479 4.71971C17.9057 4.85886 17.3028 5.09078 17.3028 5.18354C17.3028 5.2995 17.094 5.39227 16.8389 5.39227C16.5606 5.39227 16.3751 5.22993 16.3751 5.0212C16.3751 4.48779 17.2564 3.76884 17.9057 3.76884C18.2072 3.76884 18.5087 3.65288 18.5783 3.53692C18.6479 3.39777 19.1349 3.305 19.6219 3.305C20.109 3.305 20.596 3.42096 20.6656 3.53692C20.7352 3.65288 21.0135 3.76884 21.2454 3.76884C21.9643 3.76884 23.1471 4.95163 23.7269 6.25037C24.2603 7.52592 24.4459 9.10297 24.0284 9.10297C23.9124 9.10297 23.7965 9.26532 23.7965 9.47404C23.7965 9.65958 23.6573 9.96107 23.5182 10.1234C23.3558 10.2858 22.7992 10.9351 22.289 11.5613C21.7788 12.1643 20.5032 13.579 19.4828 14.669C15.5866 18.7508 14.9836 19.4466 14.6125 20.3047C14.2182 21.1859 14.2182 21.2091 14.7516 22.2296C15.0763 22.7862 15.3778 23.25 15.4474 23.25C15.517 23.25 15.8417 23.5051 16.1664 23.8066C16.7461 24.34 19.1117 25.1054 20.2017 25.1054C21.1062 25.1054 22.3586 24.456 23.3326 23.4356C25.1648 21.5338 25.6054 19.8408 24.7937 17.684C24.585 17.1042 24.3531 16.594 24.2603 16.5244C23.982 16.2461 23.495 15.1329 23.6341 14.9937C23.7037 14.9009 24.0052 14.9009 24.3067 14.9937C24.8169 15.1329 25.6518 16.4316 25.6518 17.1042C25.6518 17.2897 25.7678 17.4521 25.8838 17.4521C26.1621 17.4521 26.2084 21.3251 25.9069 21.4874C25.8142 21.557 25.6518 21.9281 25.5591 22.3223C25.4895 22.7166 25.304 23.1804 25.1416 23.3428C24.9793 23.5283 24.6778 23.853 24.469 24.0849C23.7965 24.8735 23.0775 25.3605 22.3818 25.4996C22.0107 25.5692 21.6396 25.7316 21.5701 25.8243C21.5005 25.9403 20.6424 26.0331 19.6451 26.0331C17.5579 26.0331 16.8389 25.7547 15.0531 24.2473C14.4038 23.7139 13.7776 23.25 13.6616 23.25C13.5689 23.25 12.9195 23.7834 12.2237 24.4096C11.5512 25.059 10.7858 25.5692 10.5539 25.5692C10.322 25.5692 10.1133 25.662 10.1133 25.8011C10.1133 26.1258 6.68087 26.0794 5.70681 25.7316C4.80233 25.4301 3.36443 24.4792 3.08613 24.0154C2.99336 23.8762 2.76144 23.5979 2.57591 23.4124C2.39037 23.2268 2.18164 22.8094 2.08888 22.4615C2.0193 22.1368 1.85696 21.7889 1.741 21.7194C1.62504 21.6498 1.53227 20.7453 1.53227 19.6785C1.53227 17.6376 1.76419 16.9186 2.90059 15.3648C3.64273 14.3675 10.5307 7.47954 10.7858 7.47954C11.4352 7.47954 11.2033 8.22168 10.1597 9.28851C9.30155 10.2162 5.26616 14.5299 3.99061 15.9214C3.08613 16.8954 2.92378 17.2897 2.66867 18.658C2.2976 20.7453 2.62229 21.7426 4.15295 23.2732C5.47489 24.6183 6.75045 25.2213 7.86366 25.0358C9.71901 24.7343 10.8554 24.3864 11.2033 24.0617C11.412 23.853 11.8063 23.5283 12.0614 23.3428C12.6412 22.9717 13.2442 20.9772 13.0354 20.1191C12.9195 19.6553 12.4325 19.0291 10.1828 16.5708C9.90454 16.2693 9.62624 15.8982 9.57986 15.759C9.53347 15.5967 9.30155 15.7127 9.02325 16.0605C8.53622 16.6171 8.53622 16.6403 9.00006 16.9418C10.5539 18.0318 11.9686 19.98 11.9686 21.0236C11.9686 21.9049 11.0641 23.0181 9.81178 23.6907C8.90729 24.2009 6.63449 24.3632 6.63449 23.9458C6.63449 23.8066 6.47214 23.7139 6.26342 23.7139C5.84596 23.7139 4.15295 22.0672 3.68912 21.2323C3.13251 20.2583 3.48039 17.4521 4.15295 17.4521C4.24572 17.4521 4.3153 17.2897 4.3153 17.1042C4.3153 16.5708 11.7599 9.10297 12.3165 9.10297C12.734 9.10297 12.7108 9.05659 12.2005 8.80148C11.5744 8.47679 11.2961 7.52592 11.7599 7.22443C11.9686 7.10847 11.899 6.92294 11.4816 6.57506C11.1801 6.29675 10.6699 5.85611 10.3452 5.601C8.74495 4.23268 7.21428 4.20948 5.86915 5.50823C4.68637 6.64463 4.40807 7.75784 4.89509 9.10297C5.54447 10.8887 5.59085 11.1902 5.08063 11.1902C4.82552 11.1902 4.50083 10.8656 4.22253 10.309C3.99061 9.84511 3.71231 9.26532 3.59635 9.05659C3.29485 8.4536 3.34124 6.85336 3.68912 6.27356C4.15295 5.43865 5.52128 4.00076 6.14746 3.67607C6.84321 3.305 9.18559 3.18904 9.18559 3.53692ZM9.32475 5.94888C9.51028 6.13441 9.64943 6.36633 9.64943 6.48229C9.64943 6.7374 8.74495 7.92019 8.16515 8.38402C7.93323 8.59275 7.53897 8.94063 7.28386 9.14936C6.77364 9.65958 6.47214 9.68277 6.0315 9.24212C5.66043 8.84786 5.56766 6.78378 5.93873 6.78378C6.07788 6.78378 6.17065 6.62144 6.17065 6.43591C6.17065 6.25037 6.33299 6.08803 6.51853 6.08803C6.70406 6.08803 6.86641 5.97207 6.86641 5.85611C6.86641 5.48504 8.93048 5.57781 9.32475 5.94888ZM20.7815 5.85611C20.7815 5.97207 20.9439 6.08803 21.1294 6.08803C21.315 6.08803 21.4773 6.25037 21.4773 6.43591C21.4773 6.62144 21.5933 6.78378 21.7092 6.78378C22.0803 6.78378 21.9875 8.84786 21.6164 9.24212C21.1758 9.68277 20.8743 9.65958 20.3641 9.14936C20.109 8.94063 19.7147 8.59275 19.4828 8.36083C17.4883 6.64463 17.5579 5.64738 19.6915 5.62419C20.2945 5.62419 20.7815 5.71696 20.7815 5.85611Z" fill="#031715"/>
<path d="M19.4828 17.7304C17.0245 20.3278 16.607 20.9308 16.8853 21.4874C17.21 22.2064 18.3928 22.7862 19.6683 22.8326C20.6656 22.879 20.8743 22.8094 21.7092 21.9745C23.1239 20.583 23.3559 19.1914 22.4282 17.3825C22.1731 16.8723 21.918 16.6635 21.6165 16.7099C21.3845 16.7563 21.1062 16.6867 21.0367 16.5476C20.9207 16.3852 20.3177 16.8491 19.4828 17.7304ZM21.6628 18.1942C21.8252 18.3565 21.9411 18.9131 21.9411 19.4234C21.9411 20.8381 20.9671 21.8585 19.6451 21.8585C18.6479 21.8585 17.9985 21.4643 17.9985 20.8845C17.9985 20.4206 20.5496 17.9159 21.0135 17.9159C21.2222 17.9159 21.5005 18.0319 21.6628 18.1942Z" fill="#031715"/>
<path d="M12.5948 9.79874C12.5252 10.0538 12.5716 10.2626 12.6876 10.2626C12.8036 10.2626 12.8963 10.0538 12.8963 9.79874C12.8963 9.54362 12.8499 9.3349 12.8036 9.3349C12.7572 9.3349 12.6644 9.54362 12.5948 9.79874Z" fill="#031715"/>
<path d="M11.8759 10.6568C11.7367 10.9815 11.7599 11.0047 11.9919 10.796C12.1542 10.6336 12.2238 10.4481 12.1542 10.3785C12.0846 10.3089 11.9455 10.4249 11.8759 10.6568Z" fill="#031715"/>
<path d="M12.9195 10.6336C12.7572 10.8192 12.6644 11.0279 12.7108 11.0975C12.7804 11.1439 13.0123 10.9815 13.2442 10.7264C13.4761 10.4713 13.5689 10.2626 13.4529 10.2626C13.337 10.2858 13.1051 10.4481 12.9195 10.6336Z" fill="#031715"/>
<path d="M15.1692 11.6309C15.4475 11.9092 15.8417 12.3962 16.0504 12.6977C16.2592 13.0224 16.5375 13.2775 16.6998 13.2775C16.8622 13.2775 16.8622 13.2079 16.723 13.092C16.5839 12.9992 16.3056 12.6513 16.0736 12.3035C15.8649 11.9556 15.4475 11.5381 15.1692 11.399L14.6357 11.1439L15.1692 11.6309Z" fill="#031715"/>
<path d="M10.5771 13.7645C10.5771 13.8341 10.7859 14.1588 11.0642 14.4603C11.3193 14.7618 11.6208 15.1097 11.6904 15.2488C11.8991 15.5735 12.8963 16.3852 12.8963 16.2461C12.8963 16.1997 12.3861 15.5735 11.7367 14.8778C11.1106 14.182 10.5771 13.695 10.5771 13.7645Z" fill="#031715"/>
<path d="M15.4242 15.4112C14.1487 16.7099 13.9863 16.965 14.3574 17.081C14.5893 17.1274 14.7517 17.3361 14.7053 17.4984C14.5429 17.9623 13.6153 18.0087 13.105 17.5448C12.8731 17.3361 12.618 17.1969 12.5484 17.2433C12.4325 17.3825 12.6644 17.7072 13.2906 18.2406L13.824 18.6812L14.8908 17.5448C15.4938 16.9186 16.3519 16.0142 16.8157 15.5271C17.3492 14.9705 17.5579 14.5995 17.3955 14.4835C17.2564 14.3907 17.094 14.2052 17.0477 14.0892C17.0013 13.9501 16.2591 14.5531 15.4242 15.4112Z" fill="#031715"/>
<path d="M10.3451 15.4576C10.3451 15.5039 10.5074 15.6199 10.7162 15.6895C10.9017 15.759 10.9945 15.7359 10.9249 15.5967C10.7857 15.3648 10.3451 15.272 10.3451 15.4576Z" fill="#031715"/>
<path d="M5.68367 17.2201C4.91834 18.1478 4.50089 19.3074 4.64004 20.1191C4.82557 21.0236 6.56497 22.7862 7.35349 22.8326C8.79139 22.9253 9.37118 22.763 10.1829 21.9977C11.1106 21.1396 11.1338 20.7685 10.2293 19.864C9.11607 18.7044 8.09563 17.5448 7.86371 17.1274C7.49264 16.4548 6.28666 16.5012 5.68367 17.2201ZM8.32755 19.2378C9.0465 19.9568 9.64949 20.6989 9.64949 20.8845C9.64949 21.4642 9.00011 21.8585 8.02606 21.8585C7.26072 21.8585 6.91284 21.7194 6.37943 21.1859C5.79963 20.583 5.70687 20.3278 5.70687 19.2146C5.70687 17.9391 5.73006 17.9159 6.35624 17.9159C6.84327 17.9159 7.35349 18.2638 8.32755 19.2378Z" fill="#031715"/>
<path d="M211.651 13.2775V22.7862H213.622H215.593V13.2775V3.76884H213.622H211.651V13.2775Z" fill="#031715"/>
<path d="M229.508 7.01571C229.508 9.79874 229.462 10.2626 229.161 10.2626C228.952 10.2626 228.558 10.0075 228.279 9.70597C227.978 9.38128 227.468 9.05659 227.12 8.98702C226.772 8.89425 226.424 8.73191 226.354 8.61595C226.285 8.49999 225.566 8.40722 224.754 8.40722C223.177 8.40722 221.646 9.01021 220.58 10.1002C219.768 10.9119 218.84 12.7905 218.84 13.6486C218.84 14.0892 218.747 14.4371 218.608 14.4371C218.492 14.4371 218.376 14.9473 218.376 15.5735C218.376 16.2229 218.492 16.8027 218.608 16.8723C218.747 16.9418 218.84 17.3129 218.84 17.684C218.84 18.6812 219.513 20.0032 220.58 21.0468C221.855 22.3455 222.945 22.7862 224.777 22.7862C226.401 22.7862 227.398 22.4151 228.279 21.4874C229.068 20.6293 229.508 20.7685 229.508 21.8585V22.7862H231.48H233.451V13.2775V3.76884H231.48H229.508V7.01571ZM226.609 11.886C226.679 12.002 226.957 12.1179 227.189 12.1179C227.769 12.1179 228.813 13.2775 229.184 14.3443C229.555 15.4112 229.601 16.7563 229.277 16.7563C229.161 16.7563 229.045 16.9882 229.045 17.2897C229.045 17.9623 227.908 19.0755 227.236 19.0755C226.957 19.0755 226.725 19.1683 226.725 19.3074C226.725 19.6089 225.403 19.6089 225.218 19.3074C225.148 19.1683 224.87 19.0755 224.638 19.0755C223.595 19.0755 222.365 16.5244 222.667 14.9473C222.852 13.9965 223.71 12.5818 224.128 12.5818C224.267 12.5818 224.406 12.4658 224.406 12.3498C224.406 12.2107 224.615 12.1179 224.847 12.1179C225.102 12.1179 225.38 12.002 225.45 11.886C225.519 11.7469 225.798 11.6541 226.03 11.6541C226.262 11.6541 226.54 11.7469 226.609 11.886Z" fill="#031715"/>
<path d="M42.4195 4.85885C42.0021 4.90524 41.6542 5.04439 41.6542 5.18354C41.6542 5.2995 41.4918 5.39227 41.2831 5.39227C40.3554 5.39227 37.2477 8.01295 37.2477 8.80148C37.2477 8.96382 37.155 9.10297 37.0158 9.10297C36.8998 9.10297 36.7839 9.3117 36.7839 9.54362C36.7839 9.79873 36.6911 10.0306 36.552 10.077C36.1345 10.2162 35.8562 13.6486 36.1113 15.5503C36.2505 16.5244 36.4592 17.3593 36.5752 17.4057C36.6911 17.4521 36.7839 17.6376 36.7839 17.8231C36.7839 18.4957 38.9639 21.1628 39.5205 21.1628C39.6365 21.1628 39.9148 21.3483 40.1699 21.5802C40.9352 22.276 42.5819 22.647 44.901 22.647C46.8028 22.647 48.9132 22.276 49.3075 21.8585C49.3771 21.7889 49.9105 21.3715 50.5135 20.9308C51.5803 20.1191 53.0182 18.287 53.0182 17.7304C53.0182 17.5912 53.1342 17.4521 53.2501 17.4521C53.3893 17.4521 53.482 16.5244 53.482 15.1329V12.8137H48.9596H44.4372V14.2052V15.5967H47.1043H49.7713V16.1765C49.7713 16.5012 49.6786 16.7563 49.5394 16.7563C49.4235 16.7563 49.3075 16.8954 49.3075 17.0346C49.2843 17.4984 48.5422 18.287 47.7073 18.7044C46.8724 19.1451 43.7646 19.261 42.7906 18.8668C41.9325 18.5421 41.2367 17.8463 40.6105 16.6635C40.1467 15.759 40.0308 15.2488 40.0308 13.7645C40.0308 11.2134 40.9584 9.56681 42.8834 8.75509C44.6459 8.03614 47.5217 8.56956 48.3798 9.77553C48.6813 10.2162 48.9596 10.2626 50.8846 10.2626H53.0646L52.9254 9.63638C52.6008 8.36083 50.4207 5.85611 49.609 5.85611C49.4467 5.85611 49.3075 5.74015 49.3075 5.62419C49.3075 5.48503 49.122 5.39227 48.8901 5.39227C48.6581 5.39227 48.3566 5.27631 48.1943 5.11397C47.916 4.83566 43.811 4.65013 42.4195 4.85885Z" fill="#031715"/>
<path d="M124.217 13.8573V22.7862H129.436H134.654V21.1628V19.5393H131.43C127.743 19.5393 127.928 19.6553 127.928 17.3361C127.928 15.0401 127.789 15.1329 131.082 15.1329H133.958V13.6254V12.1179H131.082C127.812 12.1179 127.928 12.2107 127.928 10.0307C127.928 7.85062 127.766 7.94339 131.43 7.94339H134.654V6.43591V4.92844H129.436H124.217V13.8573Z" fill="#031715"/>
<path d="M56.729 15.5967V22.7862H58.7003H60.6716V18.9827C60.6716 14.669 60.8804 13.7877 62.0863 13.1848C62.5038 12.976 63.3851 12.8137 64.0808 12.8137H65.31V10.6105C65.31 8.63914 65.2636 8.40722 64.8925 8.40722C64.22 8.40722 62.2255 9.47405 61.6689 10.1234C60.9035 11.0047 60.6716 10.8656 60.6716 9.56682V8.40722H58.7003H56.729V15.5967Z" fill="#031715"/>
<path d="M72.1748 8.61594C72.1052 8.7319 71.6646 8.89424 71.2239 8.96382C70.7833 9.05658 70.4122 9.19573 70.4122 9.31169C70.4122 9.40446 70.0411 9.68276 69.6005 9.93787C69.1598 10.1698 68.7888 10.4481 68.7888 10.5641C68.7888 10.68 68.5337 11.0975 68.209 11.5149C67.3973 12.5817 67.0262 15.1097 67.3509 17.1969C67.606 18.7276 68.2322 20.2351 68.6264 20.2351C68.7192 20.2351 68.7888 20.3742 68.7888 20.5134C68.7888 20.9076 70.2267 21.8585 71.5718 22.3687C72.7082 22.8094 76.3029 22.9485 76.5581 22.5775C76.6276 22.4615 76.9755 22.2992 77.3234 22.2064C78.0423 22.0672 80.1528 20.1191 80.1528 19.6089C80.1528 19.4465 80.2456 19.3074 80.3615 19.3074C80.4775 19.3074 80.6166 19.0987 80.6862 18.8436C80.8022 18.4029 80.6862 18.3797 78.6917 18.3797C76.7204 18.3797 76.5117 18.4261 76.0014 18.9595C75.5376 19.4465 75.2593 19.5393 74.0533 19.5393C72.7778 19.5393 72.5922 19.4697 72.0124 18.8204C71.3167 18.0318 71.0152 16.965 71.4095 16.7099C71.5718 16.6171 73.8446 16.5244 76.5117 16.5244H81.3124V15.156C81.3124 14.3907 81.2196 13.7182 81.1037 13.6486C80.9877 13.579 80.8254 13.1384 80.7558 12.6977C80.663 12.2571 80.5007 11.886 80.3847 11.886C80.2456 11.886 80.1528 11.7468 80.1528 11.5845C80.1528 11.0511 78.2743 9.35808 77.393 9.07977C76.9291 8.94062 76.4653 8.7319 76.3493 8.61594C76.0478 8.33763 72.3371 8.33763 72.1748 8.61594ZM75.8623 11.9092C76.4653 12.2107 76.79 12.7209 77.0219 13.695L77.1842 14.4371H74.2621H71.3399V13.7877C71.3631 12.0715 73.9374 11.0047 75.8623 11.9092Z" fill="#031715"/>
<path d="M88.27 8.63914C88.0844 8.7319 87.5742 8.96382 87.1336 9.12617C86.2291 9.47404 84.0954 11.5613 84.0954 12.1179C84.0954 12.3266 83.9563 12.6281 83.8171 12.7673C83.6084 12.976 83.5156 13.8805 83.5156 15.5967C83.5156 17.3129 83.6084 18.2174 83.8171 18.4261C83.9563 18.5653 84.0954 18.89 84.0954 19.0987C84.0954 19.7944 86.4842 21.9513 87.7365 22.3687C89.9166 23.1341 93.1866 22.7862 94.6245 21.6266C95.6682 20.8149 96.3871 19.9336 96.7814 19.0059L97.0829 18.3797H94.7637C92.862 18.3797 92.4445 18.4493 92.4445 18.7276C92.4445 18.9131 92.3054 19.0755 92.1198 19.0755C91.9343 19.0755 91.7487 19.1683 91.7024 19.2842C91.6328 19.5161 90.6819 19.6321 89.6383 19.5857C88.7106 19.5161 87.2727 17.9623 87.3887 17.1506C87.4582 16.6403 87.5278 16.6403 92.3981 16.5708L97.3148 16.5244V14.9705C97.3148 13.4399 96.7582 11.4222 96.3639 11.4222C96.248 11.4222 96.1552 11.283 96.1552 11.1207C96.1552 10.9583 95.8305 10.5873 95.4363 10.2626C95.042 9.93788 94.5782 9.54362 94.4158 9.38128C94.2303 9.21893 93.7664 9.0334 93.3722 8.96382C92.9779 8.87106 92.6068 8.70871 92.5373 8.61594C92.3749 8.36083 88.7338 8.36083 88.27 8.63914ZM92.63 12.5586C93.0707 13.0456 93.3722 13.579 93.3258 13.8573C93.2562 14.298 93.0707 14.3211 90.3108 14.3907C87.7597 14.4371 87.3423 14.3907 87.3423 14.0892C87.3423 13.579 88.3395 12.1179 88.6874 12.1179C88.8266 12.1179 88.9657 12.0252 88.9657 11.9092C88.9657 11.6077 90.0325 11.4685 91.053 11.6077C91.5864 11.6773 92.1198 12.002 92.63 12.5586Z" fill="#031715"/>
<path d="M100.562 15.5967V22.7862H102.533H104.504V18.3797C104.504 13.9037 104.574 13.4862 105.455 12.605C106.707 11.3294 108.331 11.3294 109.583 12.605C110.465 13.4862 110.534 13.9037 110.534 18.3797V22.7862H112.505H114.477V17.8695C114.477 13.8341 114.407 12.7673 114.083 11.886C113.642 10.7032 111.926 8.87106 111.23 8.87106C110.975 8.87106 110.766 8.7551 110.766 8.63914C110.766 8.36084 107.821 8.31446 107.658 8.61595C107.589 8.70872 107.241 8.87106 106.87 8.94064C106.499 9.01021 105.942 9.3349 105.641 9.65958C104.829 10.5177 104.504 10.4249 104.504 9.3349V8.40722H102.533H100.562V15.5967Z" fill="#031715"/>
<path d="M138.364 15.5967V22.7862H140.336H142.307V18.2638C142.307 15.4112 142.4 13.7414 142.539 13.7414C142.678 13.7414 142.771 13.5558 142.771 13.3007C142.771 12.0483 146.018 11.5149 147.247 12.5818C148.175 13.3935 148.337 14.3212 148.337 18.774V22.7862H150.308H152.28V18.4029C152.28 13.9037 152.372 13.3935 153.3 12.4658C153.601 12.1411 154.088 12.0252 155.155 12.0252C156.408 12.002 156.663 12.0715 157.335 12.6745L158.077 13.3471V18.0782V22.7862H160.165H162.252V17.7072C162.252 12.6977 162.252 12.5818 161.672 11.4917C160.93 10.1002 159.933 9.12617 159.005 8.96383C158.611 8.87106 158.24 8.70872 158.17 8.61595C158.008 8.33765 155.063 8.33765 155.063 8.61595C155.063 8.73191 154.738 8.89425 154.344 8.98702C153.949 9.07979 153.207 9.59001 152.674 10.1234L151.7 11.0743L150.772 10.1234C149.079 8.40722 146.505 7.92019 144.533 8.96383C143.954 9.26532 143.304 9.68278 143.096 9.8915C142.516 10.4713 142.307 10.3321 142.307 9.3349V8.40722H140.336H138.364V15.5967Z" fill="#031715"/>
<path d="M170.277 8.61595C170.207 8.70872 169.813 8.87106 169.418 8.96383C168.398 9.14936 167.03 10.2162 166.38 11.3062C166.056 11.8164 165.638 12.9528 165.406 13.8109C165.035 15.3184 165.035 15.5271 165.406 17.3593C165.615 18.4261 165.87 19.3074 165.94 19.3074C166.032 19.3074 166.264 19.6553 166.496 20.0496C167.772 22.4151 172.317 23.5515 175.263 22.2296C175.959 21.9281 176.863 21.3483 177.257 20.9308C177.953 20.2351 178.718 19.0059 178.718 18.5653C178.718 18.4725 177.814 18.3797 176.677 18.3797C174.822 18.3797 174.59 18.4261 174.01 18.9827C173.477 19.4698 173.152 19.5625 172.039 19.5625C171.32 19.5625 170.694 19.4698 170.648 19.3306C170.601 19.1915 170.416 19.0755 170.23 19.0755C170.045 19.0755 169.905 18.9131 169.905 18.7276C169.905 18.5421 169.813 18.3797 169.674 18.3797C169.558 18.3797 169.442 18.1942 169.442 17.9623C169.442 17.7304 169.326 17.4289 169.163 17.2665C169.024 17.1274 168.978 16.9186 169.071 16.8259C169.163 16.7099 171.506 16.594 174.266 16.5244L179.298 16.4084L179.275 15.2488C179.229 13.8573 178.765 11.886 178.463 11.886C178.347 11.886 178.255 11.77 178.255 11.6541C178.255 10.9583 176.446 9.40447 174.984 8.89425C173.639 8.38403 170.508 8.1985 170.277 8.61595ZM173.152 11.6541C173.918 11.6541 175.24 13.3007 175.24 14.2284C175.24 14.5067 169.511 14.5067 169.349 14.2284C169.14 13.9037 169.558 12.9528 170.184 12.2803C170.74 11.6773 171.529 11.4222 172.341 11.5613C172.596 11.6077 172.967 11.6541 173.152 11.6541Z" fill="#031715"/>
<path d="M182.197 15.5967V22.7862H184.168H186.14V19.6553C186.14 14.066 186.766 12.8137 189.595 12.8137H190.778V10.6105C190.778 8.59276 190.732 8.40722 190.337 8.40722C190.082 8.40722 189.804 8.49999 189.734 8.63914C189.665 8.7551 189.387 8.87106 189.155 8.87106C188.923 8.87106 188.227 9.3349 187.601 9.8915C186.372 11.0279 186.14 10.9583 186.14 9.38128V8.40722H184.168H182.197V15.5967Z" fill="#031715"/>
<path d="M196.367 9.01021C194.999 9.75235 193.608 11.3062 193.422 12.2803C193.352 12.6977 193.19 13.1152 193.074 13.1847C192.703 13.4167 192.842 17.4289 193.26 18.6348C193.492 19.261 193.747 19.7712 193.839 19.7712C193.955 19.7712 194.025 19.9104 194.025 20.0727C194.025 20.5134 195.625 21.9281 196.646 22.3919C198.478 23.2268 201.516 22.7166 202.722 21.3947C203.348 20.7221 203.534 20.8149 203.534 21.8585V22.7862H205.621H207.708V15.5967V8.40722H205.621H203.534V9.45085C203.534 10.6104 203.418 10.7032 202.838 10.0307C201.423 8.40722 198.339 7.92019 196.367 9.01021ZM201.006 11.9324C201.446 12.0715 201.933 12.3498 202.096 12.5122C202.258 12.6745 202.467 12.8137 202.56 12.8137C202.652 12.8137 202.907 13.1384 203.139 13.5326C203.673 14.4835 203.673 16.7795 203.139 17.6376C202.606 18.4493 201.91 19.0755 201.516 19.0755C201.354 19.0755 201.214 19.1683 201.214 19.3074C201.214 19.4234 200.797 19.5393 200.287 19.5393C199.777 19.5393 199.359 19.4234 199.359 19.3074C199.359 19.1683 199.174 19.0755 198.942 19.0755C198.455 19.0755 197.527 18.1014 197.109 17.1506C196.228 15.2256 197.272 12.7209 199.243 11.9556C200.171 11.6077 200.101 11.6077 201.006 11.9324Z" fill="#031715"/>
</svg>
