<?xml version="1.0" encoding="iso-8859-1"?>
<!-- Uploaded to: SVG Repo, www.svgrepo.com, Generator: SVG Repo Mixer Tools -->
<!DOCTYPE svg PUBLIC "-//W3C//DTD SVG 1.1//EN" "http://www.w3.org/Graphics/SVG/1.1/DTD/svg11.dtd">
<svg fill="#000000" version="1.1" id="Capa_1" xmlns="http://www.w3.org/2000/svg" xmlns:xlink="http://www.w3.org/1999/xlink" 
	 width="800px" height="800px" viewBox="0 0 540.586 540.587"
	 xml:space="preserve">
<g>
	<g>
		<path d="M420.583,503.896V36.682C420.583,16.457,404.125,0,383.901,0H156.687c-20.225,0-36.682,16.457-36.682,36.682v467.215
			c0,20.225,16.457,36.69,36.682,36.69h227.224C404.135,540.587,420.583,524.13,420.583,503.896z M406.239,503.896
			c0,12.325-10.021,22.347-22.338,22.347H156.687c-12.317,0-22.338-10.021-22.338-22.347V36.682
			c0-12.307,10.021-22.338,22.338-22.338h227.224c12.316,0,22.338,10.031,22.338,22.338v467.215H406.239z"/>
		<path d="M388.461,59.651H152.125c-1.979,0-3.586,1.606-3.586,3.586v410.174c0,1.979,1.606,3.586,3.586,3.586h236.336
			c1.98,0,3.586-1.606,3.586-3.586V63.237C392.047,61.257,390.442,59.651,388.461,59.651z M375.313,469.825h-210.04
			c-5.278,0-9.562-4.284-9.562-9.562V76.385c0-5.278,4.284-9.562,9.562-9.562h210.04c5.279,0,9.562,4.284,9.562,9.562v383.877
			C384.875,465.541,380.592,469.825,375.313,469.825z"/>
		<path d="M250.122,37.81h40.344c1.98,0,3.586-1.606,3.586-3.586c0-1.979-1.605-3.586-3.586-3.586h-40.344
			c-1.979,0-3.586,1.607-3.586,3.586C246.536,36.204,248.142,37.81,250.122,37.81z"/>
		<path d="M290.954,485.191h-41.31c-8.482,0-15.386,6.904-15.386,15.377v2.467c0,8.482,6.914,15.387,15.386,15.387h41.31
			c8.482,0,15.387-6.914,15.387-15.387v-2.467C306.34,492.096,299.436,485.191,290.954,485.191z M299.168,503.035
			c0,4.533-3.691,8.215-8.215,8.215h-41.31c-4.533,0-8.214-3.691-8.214-8.215v-2.467c0-4.523,3.691-8.205,8.214-8.205h41.31
			c4.533,0,8.215,3.691,8.215,8.205V503.035z"/>
		<path d="M290.809,335.156c4.955-1.826,7.957-5.986,7-8.559c-0.955-2.572-5.459-2.505-10.461-0.794
			c-7.172,2.458-15.357,3.72-23.954,3.72c-32.034,0-55.615-22.51-55.615-58.656c0-43.939,29.663-72.072,64.929-72.072
			c33.555,0,52.385,22.721,52.385,54.325c0,24.891-12.336,39.828-23.381,39.388c-7.135-0.221-9.734-7.794-6.494-24.241l5.605-29.778
			c0.975-5.192-2.152-11.207-7.307-12.383c-4.256-0.966-9.074-1.559-14.096-1.559c-30.083,0-51.283,24.461-51.283,51.293
			c0,17.098,10.825,27.272,23.361,27.272c10.021,0,18.236-3.729,24.949-11.303c3.499-3.949,5.718-7.746,5.899-7.746
			s-0.2,4.466,1.731,9.381c2.629,6.713,8.559,9.658,14.83,9.658c20.121,0,38.309-19.049,38.309-51.513
			c0-36.146-25.111-62.768-62.77-62.768c-48.042,0-78.995,38.747-78.995,83.327c0,41.77,30.083,67.741,65.58,67.741
			C272.01,339.909,281.629,338.541,290.809,335.156z M256.701,291.427c-9.524,0-14.277-6.933-14.277-16.447
			c0-21,15.357-38.958,34.406-38.958c2.056,0,3.892,0.144,5.489,0.383c3.012,0.44,4.551,5.565,3.576,10.748l-2.783,14.841
			C280.711,275.409,269.247,291.427,256.701,291.427z"/>
	</g>
</g>
</svg>