<svg width="37" height="37" viewBox="0 0 37 37" fill="none" xmlns="http://www.w3.org/2000/svg">
<g clip-path="url(#clip0_2017_866)">
<path d="M29 6.44995H27.3485C26.651 3.03145 23.621 0.449951 20 0.449951H8C3.8645 0.449951 0.5 3.81445 0.5 7.94995V27.231C0.5 28.422 1.1525 29.511 2.201 30.0719C2.678 30.3284 3.2015 30.4545 3.7235 30.4545C4.3475 30.4545 4.97 30.273 5.5085 29.9145L9.9335 26.964C10.97 29.8665 13.745 31.95 17 31.95H25.5455L31.4915 35.9145C32.0315 36.2745 32.6525 36.456 33.2765 36.456C33.7985 36.456 34.3205 36.3284 34.799 36.0719C35.849 35.5109 36.5 34.422 36.5 33.2309V13.95C36.5 9.81445 33.1355 6.44995 29 6.44995ZM3.845 27.4185C3.8165 27.4365 3.7325 27.4905 3.617 27.429C3.4985 27.366 3.4985 27.2655 3.4985 27.2325V7.94995C3.4985 5.46895 5.5175 3.44995 7.9985 3.44995H19.9985C22.4795 3.44995 24.4985 5.46895 24.4985 7.94995V18.45C24.4985 20.931 22.4795 22.95 19.9985 22.95H10.9985C10.508 22.95 10.187 23.1885 10.151 23.2125L3.845 27.4185ZM33.5 33.2325C33.5 33.264 33.5 33.366 33.3815 33.429C33.263 33.4905 33.182 33.4365 33.155 33.4184L26.8325 29.202C26.5865 29.0385 26.297 28.95 26 28.95H17C15.044 28.95 13.3775 27.696 12.758 25.95H20C24.1355 25.95 27.5 22.5855 27.5 18.45V9.44995H29C31.481 9.44995 33.5 11.469 33.5 13.95V33.2325Z" fill="#FDFDE1"/>
</g>
<defs>
<clipPath id="clip0_2017_866">
<rect width="36" height="36" fill="white" transform="translate(0.5 0.449951)"/>
</clipPath>
</defs>
</svg>
